# xmcd
#
# Track frame offsets:
#	150
#	10877
#	22919
#	38850
#	52773
#	67216
#	84579
#	94393
#	103573
#	117900
#	132907
#	146055
#	156722
#	172796
#	190816
#	199900
#	210806
#	223411
#	235688
#	251119
#
# Disc length: 3566 seconds
#
# Revision: 1
# Processed by: cddbd v1.5.1PL0 Copyright (c) Steve Scherf et al.
# Submitted via: audiograbber 1.83.01
#
DISCID=1e0dec14
DTITLE=Various Artist - Superhits of Country [CD2]
DYEAR=1900
DGENRE=Country
TTITLE0=The Everly Brothers - (Til´) I Kissed You
TTITLE1=Johnny Lee - Hey Bartendr
TTITLE2=Brenda Lee - Johnny One Time (live performance)
TTITLE3=Conway Twitty - Fifteen Years Ago
TTITLE4=Peter Drake - Lay Lade Lay
TTITLE5=Deborah Allen - Baby I lied
TTITLE6=Boots Randolph and Danny Davis - I Fall To Piece
TTITLE7=The Everly Brothers - Wake Up Little Sisie
TTITLE8=Eddie Rabbitt  - I Love A Rainy Night
TTITLE9=The Amazing Rhythm - Third Rate Night
TTITLE10=Roy Clark - Come Live With Me
TTITLE11=Eddie Rabbitt - Two Dollars In The Jukebox
TTITLE12=Brenda Lee - Comiong On Strong (live performance)
TTITLE13=Rick Nelson - Garden Party
TTITLE14=Pete Drake - Country Pie
TTITLE15=Roger Miller - Husbands And Wieves
TTITLE16=Leroy Van Dyke - The Auctioneer
TTITLE17=Mickey Gilley - Make The World Go Away
TTITLE18=The Bellamy Brothers - Kids of The Baby Boom
TTITLE19=Charlie Rich - Big Boss Man
EXTD=
EXTT0=
EXTT1=
EXTT2=
EXTT3=
EXTT4=
EXTT5=
EXTT6=
EXTT7=
EXTT8=
EXTT9=
EXTT10=
EXTT11=
EXTT12=
EXTT13=
EXTT14=
EXTT15=
EXTT16=
EXTT17=
EXTT18=
EXTT19=
PLAYORDER=
